# xmcd
#
# Track frame offsets: 
#        150
#        14295
#        27620
#        38942
#        54345
#        69100
#        84250
#        93740
#        111212
#        127897
#        145600
#        156852
#        182845
#        194935
#        206987
#        218697
#        232240
#        247195
#        261692
#        272120
#
# Disc length: 3781 seconds
#
# Revision: 2
# Processed by: cddbd v1.4PL0 Copyright (c) Steve Scherf et al.
# Submitted via: ExactAudioCopy v0.90b4
#
DISCID=350ec314
DTITLE=Muddy Waters  - Mud In Your Ear
DYEAR=1900
DGENRE=
TTITLE0=Diggin' My Potatoes
TTITLE1=Watch Dog
TTITLE2=Sting It
TTITLE3=Why'd You Do Me?
TTITLE4=Natural Wig
TTITLE5=Mud In Your Ear
TTITLE6=Excuse Me Baby
TTITLE7=Sad Day Uptown
TTITLE8=Top of the Boogaloo
TTITLE9=Long Distance Call
TTITLE10=Mini Dress
TTITLE11=Remember Me
TTITLE12=Snake
TTITLE13=Comin' Home Baby
TTITLE14=Blues for Hippies
TTITLE15=Chicken Shack
TTITLE16=Love 'n' Trouble
TTITLE17=I'm So Glad
TTITLE18=Love Without Jealousy
TTITLE19=Evil
EXTD=
EXTT0=
EXTT1=
EXTT2=
EXTT3=
EXTT4=
EXTT5=
EXTT6=
EXTT7=
EXTT8=
EXTT9=
EXTT10=
EXTT11=
EXTT12=
EXTT13=
EXTT14=
EXTT15=
EXTT16=
EXTT17=
EXTT18=
EXTT19=
PLAYORDER=
